# xmcd CD database file
#
# Track frame offsets:
#	150
#	20955
#	39075
#
# Disc length: 795 seconds
#
# Revision: 4
# Processed by: cddbd v1.5PL3 Copyright (c) Steve Scherf et al.
# Submitted via: CDex 1.40Release
#
DISCID=1c031903
DTITLE=細川ふみえ - にこにこにゃんにゃん
DYEAR=1993
DGENRE=Pop
TTITLE0=にこにこにゃんにゃん
TTITLE1=ウブ・ウブ・ウブ
TTITLE2=にこにこにゃんにゃん（オリジナル・カラオケ）
EXTD=YEAR: 1993 ID3G: 13
EXTT0=
EXTT1=
EXTT2=
PLAYORDER=
